<?xml version="1.0" encoding="UTF-8"?>
<!DOCTYPE svg PUBLIC "-//W3C//DTD SVG 1.1//EN" "http://www.w3.org/Graphics/SVG/1.1/DTD/svg11.dtd">
<svg version="1.2" width="70.39mm" height="70.38mm" viewBox="9404 5657 7039 7038" preserveAspectRatio="xMidYMid" fill-rule="evenodd" stroke-width="28.222" stroke-linejoin="round" xmlns="http://www.w3.org/2000/svg" xmlns:ooo="http://xml.openoffice.org/svg/export" xmlns:xlink="http://www.w3.org/1999/xlink" xmlns:presentation="http://sun.com/xmlns/staroffice/presentation" xmlns:smil="http://www.w3.org/2001/SMIL20/" xmlns:anim="urn:oasis:names:tc:opendocument:xmlns:animation:1.0" xml:space="preserve">
 <defs class="ClipPathGroup">
  <clipPath id="presentation_clip_path" clipPathUnits="userSpaceOnUse">
   <rect x="9404" y="5657" width="7039" height="7038"/>
  </clipPath>
  <clipPath id="presentation_clip_path_shrink" clipPathUnits="userSpaceOnUse">
   <rect x="9411" y="5664" width="7025" height="7024"/>
  </clipPath>
 </defs>
 <defs class="TextShapeIndex">
  <g ooo:slide="id1" ooo:id-list="id3 id4 id5 id6 id7 id8 id9 id10 id11 id12"/>
 </defs>
 <defs class="EmbeddedBulletChars">
  <g id="bullet-char-template-57356" transform="scale(0.00048828125,-0.00048828125)">
   <path d="M 580,1141 L 1163,571 580,0 -4,571 580,1141 Z"/>
  </g>
  <g id="bullet-char-template-57354" transform="scale(0.00048828125,-0.00048828125)">
   <path d="M 8,1128 L 1137,1128 1137,0 8,0 8,1128 Z"/>
  </g>
  <g id="bullet-char-template-10146" transform="scale(0.00048828125,-0.00048828125)">
   <path d="M 174,0 L 602,739 174,1481 1456,739 174,0 Z M 1358,739 L 309,1346 659,739 1358,739 Z"/>
  </g>
  <g id="bullet-char-template-10132" transform="scale(0.00048828125,-0.00048828125)">
   <path d="M 2015,739 L 1276,0 717,0 1260,543 174,543 174,936 1260,936 717,1481 1274,1481 2015,739 Z"/>
  </g>
  <g id="bullet-char-template-10007" transform="scale(0.00048828125,-0.00048828125)">
   <path d="M 0,-2 C -7,14 -16,27 -25,37 L 356,567 C 262,823 215,952 215,954 215,979 228,992 255,992 264,992 276,990 289,987 310,991 331,999 354,1012 L 381,999 492,748 772,1049 836,1024 860,1049 C 881,1039 901,1025 922,1006 886,937 835,863 770,784 769,783 710,716 594,584 L 774,223 C 774,196 753,168 711,139 L 727,119 C 717,90 699,76 672,76 641,76 570,178 457,381 L 164,-76 C 142,-110 111,-127 72,-127 30,-127 9,-110 8,-76 1,-67 -2,-52 -2,-32 -2,-23 -1,-13 0,-2 Z"/>
  </g>
  <g id="bullet-char-template-10004" transform="scale(0.00048828125,-0.00048828125)">
   <path d="M 285,-33 C 182,-33 111,30 74,156 52,228 41,333 41,471 41,549 55,616 82,672 116,743 169,778 240,778 293,778 328,747 346,684 L 369,508 C 377,444 397,411 428,410 L 1163,1116 C 1174,1127 1196,1133 1229,1133 1271,1133 1292,1118 1292,1087 L 1292,965 C 1292,929 1282,901 1262,881 L 442,47 C 390,-6 338,-33 285,-33 Z"/>
  </g>
  <g id="bullet-char-template-9679" transform="scale(0.00048828125,-0.00048828125)">
   <path d="M 813,0 C 632,0 489,54 383,161 276,268 223,411 223,592 223,773 276,916 383,1023 489,1130 632,1184 813,1184 992,1184 1136,1130 1245,1023 1353,916 1407,772 1407,592 1407,412 1353,268 1245,161 1136,54 992,0 813,0 Z"/>
  </g>
  <g id="bullet-char-template-8226" transform="scale(0.00048828125,-0.00048828125)">
   <path d="M 346,457 C 273,457 209,483 155,535 101,586 74,649 74,723 74,796 101,859 155,911 209,963 273,989 346,989 419,989 480,963 531,910 582,859 608,796 608,723 608,648 583,586 532,535 482,483 420,457 346,457 Z"/>
  </g>
  <g id="bullet-char-template-8211" transform="scale(0.00048828125,-0.00048828125)">
   <path d="M -4,459 L 1135,459 1135,606 -4,606 -4,459 Z"/>
  </g>
  <g id="bullet-char-template-61548" transform="scale(0.00048828125,-0.00048828125)">
   <path d="M 173,740 C 173,903 231,1043 346,1159 462,1274 601,1332 765,1332 928,1332 1067,1274 1183,1159 1299,1043 1357,903 1357,740 1357,577 1299,437 1183,322 1067,206 928,148 765,148 601,148 462,206 346,322 231,437 173,577 173,740 Z"/>
  </g>
 </defs>
 <defs class="TextEmbeddedBitmaps"/>
 <g class="SlideGroup">
  <g>
   <g id="container-id1">
    <g id="id1" class="Slide" clip-path="url(#presentation_clip_path)">
     <g class="Page">
      <g class="com.sun.star.drawing.ClosedBezierShape">
       <g id="id3">
        <rect class="BoundingBox" stroke="none" fill="none" x="9687" y="7070" width="5344" height="5344"/>
        <path fill="rgb(0,0,0)" stroke="none" d="M 10944,12287 C 10567,11910 10190,11533 9813,11156 11133,9836 12453,8516 13773,7196 14150,7573 14527,7950 14904,8327 13584,9647 12264,10967 10944,12287 Z"/>
        <path fill="none" stroke="rgb(0,0,0)" stroke-width="250" stroke-linejoin="round" d="M 10944,12287 L 9813,11156 13773,7196 14904,8327 10944,12287 Z"/>
       </g>
      </g>
      <g class="com.sun.star.drawing.ClosedBezierShape">
       <g id="id4">
        <rect class="BoundingBox" stroke="none" fill="none" x="13364" y="6505" width="2232" height="2232"/>
        <path fill="rgb(0,0,0)" stroke="none" d="M 15187,8610 C 14621,8044 14056,7479 13490,6913 13584,6819 13679,6724 13773,6630 14338,7196 14904,7762 15470,8327 15376,8421 15281,8516 15187,8610 Z"/>
        <path fill="none" stroke="rgb(0,0,0)" stroke-width="250" stroke-linejoin="round" d="M 15187,8610 L 13490,6913 13773,6630 15470,8327 15187,8610 Z"/>
       </g>
      </g>
      <g class="com.sun.star.drawing.ClosedBezierShape">
       <g id="id5">
        <rect class="BoundingBox" stroke="none" fill="none" x="14213" y="5656" width="2232" height="2232"/>
        <path fill="rgb(0,0,0)" stroke="none" d="M 16036,7762 C 15470,7196 14904,6630 14338,6064 14433,5970 14527,5876 14621,5782 15187,6347 15753,6913 16318,7479 16224,7573 16130,7667 16036,7762 Z"/>
        <path fill="none" stroke="rgb(0,0,0)" stroke-width="250" stroke-linejoin="round" d="M 16036,7762 L 14338,6064 14621,5782 16318,7479 16036,7762 Z"/>
       </g>
      </g>
      <g class="com.sun.star.drawing.ClosedBezierShape">
       <g id="id6">
        <rect class="BoundingBox" stroke="none" fill="none" x="14213" y="6505" width="1383" height="1383"/>
        <path fill="rgb(0,0,0)" stroke="none" d="M 14904,7762 C 14716,7573 14527,7384 14338,7196 14527,7007 14716,6819 14904,6630 15093,6819 15281,7007 15470,7196 15281,7384 15093,7573 14904,7762 Z"/>
        <path fill="none" stroke="rgb(0,0,0)" stroke-width="250" stroke-linejoin="round" d="M 14904,7762 L 14338,7196 14904,6630 15470,7196 14904,7762 Z"/>
       </g>
      </g>
      <g class="com.sun.star.drawing.ClosedBezierShape">
       <g id="id7">
        <rect class="BoundingBox" stroke="none" fill="none" x="9404" y="9757" width="2940" height="2939"/>
        <path fill="rgb(0,0,0)" stroke="none" d="M 9530,12570 C 9530,12570 9530,12569 9529,12569 10425,11673 11321,10778 12216,9882 12217,9882 12217,9883 12217,9883 11321,10779 10426,11674 9530,12570 Z"/>
        <path fill="none" stroke="rgb(0,0,0)" stroke-width="250" stroke-linejoin="round" d="M 9530,12570 L 9529,12569 12216,9882 12217,9883 9530,12570 Z"/>
       </g>
      </g>
      <g class="com.sun.star.drawing.ClosedBezierShape">
       <g id="id8">
        <rect class="BoundingBox" stroke="none" fill="none" x="9687" y="7070" width="5344" height="5344"/>
        <path fill="rgb(255,255,255)" stroke="none" d="M 10944,12287 C 10567,11910 10190,11533 9813,11156 11133,9836 12453,8516 13773,7196 14150,7573 14527,7950 14904,8327 13584,9647 12264,10967 10944,12287 Z"/>
        <path fill="none" stroke="rgb(0,0,0)" stroke-width="250" stroke-linejoin="round" d="M 10944,12287 L 9813,11156 13773,7196 14904,8327 10944,12287 Z"/>
       </g>
      </g>
      <g class="com.sun.star.drawing.ClosedBezierShape">
       <g id="id9">
        <rect class="BoundingBox" stroke="none" fill="none" x="9687" y="7919" width="4495" height="4495"/>
        <g>
         <defs>
          <linearGradient id="gradient1" x1="11896" y1="8007" x2="11972" y2="12324" gradientUnits="userSpaceOnUse">
           <stop offset="0" style="stop-color:rgb(232,242,161)"/>
           <stop offset="1" style="stop-color:rgb(129,212,26)"/>
          </linearGradient>
         </defs>
         <path style="fill:url(#gradient1)" d="M 10944,12287 L 9813,11156 12924,8044 14056,9176 10944,12287 Z"/>
        </g>
        <path fill="none" stroke="rgb(0,0,0)" stroke-width="250" stroke-linejoin="round" d="M 10944,12287 L 9813,11156 12924,8044 14056,9176 10944,12287 Z"/>
       </g>
      </g>
      <g class="Group">
       <g class="com.sun.star.drawing.ClosedBezierShape">
        <g id="id10">
         <rect class="BoundingBox" stroke="none" fill="none" x="10952" y="10234" width="865" height="867"/>
         <path fill="rgb(0,0,0)" stroke="none" d="M 11218,11020 L 11375,10842 C 11406,10866 11434,10879 11460,10882 11501,10887 11539,10873 11572,10839 11598,10813 11611,10788 11613,10762 11615,10737 11608,10716 11593,10701 11578,10686 11558,10679 11533,10681 11508,10682 11467,10701 11409,10738 11315,10798 11236,10831 11174,10835 11112,10839 11059,10819 11014,10775 10985,10745 10966,10709 10957,10666 10948,10623 10953,10577 10972,10528 10992,10478 11031,10424 11091,10365 11164,10291 11233,10249 11298,10238 11364,10227 11430,10247 11496,10299 L 11340,10475 C 11310,10453 11282,10444 11256,10447 11230,10449 11204,10463 11179,10488 11159,10509 11147,10529 11146,10548 11144,10567 11149,10583 11162,10595 11171,10604 11183,10608 11199,10607 11215,10606 11242,10593 11279,10569 11373,10508 11445,10470 11496,10453 11546,10437 11592,10434 11632,10444 11672,10454 11708,10474 11739,10505 11776,10542 11800,10586 11810,10637 11821,10688 11816,10740 11796,10792 11775,10845 11737,10899 11682,10954 11585,11051 11499,11100 11424,11100 11349,11100 11281,11073 11218,11020 Z"/>
        </g>
       </g>
       <g class="com.sun.star.drawing.ClosedBezierShape">
        <g id="id11">
         <rect class="BoundingBox" stroke="none" fill="none" x="11565" y="9607" width="1056" height="874"/>
         <path fill="rgb(0,0,0)" stroke="none" d="M 12436,10013 C 12474,10006 12498,10002 12508,9999 12524,9994 12545,9987 12569,9978 L 12619,10126 C 12582,10139 12544,10149 12503,10157 12462,10164 12433,10169 12415,10170 12393,10226 12353,10283 12294,10342 12207,10429 12116,10474 12021,10479 11908,10485 11804,10439 11707,10343 11613,10249 11566,10150 11565,10046 11565,9942 11612,9844 11705,9751 11799,9656 11898,9608 12000,9607 12103,9607 12201,9654 12296,9748 12381,9833 12427,9921 12436,10013 Z M 12211,10058 C 12199,10019 12169,9974 12119,9924 12061,9867 12009,9836 11963,9833 11917,9830 11875,9847 11838,9885 11803,9920 11787,9961 11790,10007 11794,10054 11822,10105 11876,10158 11938,10220 11992,10253 12039,10257 12085,10261 12127,10245 12164,10207 12176,10196 12186,10183 12194,10170 12165,10171 12129,10180 12084,10200 L 12048,10108 C 12067,10096 12082,10087 12095,10083 12108,10078 12136,10072 12178,10065 12188,10063 12199,10061 12211,10058 Z"/>
        </g>
       </g>
       <g class="com.sun.star.drawing.ClosedBezierShape">
        <g id="id12">
         <rect class="BoundingBox" stroke="none" fill="none" x="12106" y="9191" width="1024" height="749"/>
         <path fill="rgb(0,0,0)" stroke="none" d="M 12107,9368 C 12166,9309 12225,9250 12284,9191 12427,9335 12570,9478 12714,9621 12805,9530 12896,9438 12988,9347 13035,9394 13082,9441 13129,9488 12978,9638 12828,9788 12677,9939 12487,9748 12297,9558 12107,9368 Z"/>
        </g>
       </g>
      </g>
     </g>
    </g>
   </g>
  </g>
 </g>
</svg>